<?xml version="1.0" standalone="no"?>
<!DOCTYPE svg PUBLIC "-//W3C//DTD SVG 20010904//EN"
 "http://www.w3.org/TR/2001/REC-SVG-20010904/DTD/svg10.dtd">
<svg version="1.0" xmlns="http://www.w3.org/2000/svg"
 width="300.000000pt" height="300.000000pt" viewBox="0 0 300.000000 300.000000"
 preserveAspectRatio="xMidYMid meet">
<metadata>
Created by potrace 1.10, written by Peter Selinger 2001-2011
</metadata>
<g transform="translate(0.000000,300.000000) scale(0.100000,-0.100000)"
fill="#000000" stroke="none">
<path d="M1908 2821 c-31 -10 -76 -30 -100 -44 -62 -36 -145 -128 -176 -194
-24 -51 -27 -70 -27 -158 0 -55 3 -116 8 -135 7 -34 6 -36 -45 -70 -116 -78
-235 -210 -377 -422 l-52 -78 -97 -29 c-53 -16 -122 -37 -153 -45 -61 -17 -86
-38 -157 -129 -77 -101 -113 -167 -101 -188 12 -24 38 -24 118 1 36 11 98 23
138 27 81 7 90 -2 56 -53 -14 -22 -15 -31 -5 -56 14 -38 10 -45 -30 -53 -77
-17 -160 -137 -202 -293 -17 -62 -14 -94 5 -60 5 9 16 23 24 31 8 8 12 17 9
20 -9 8 25 109 54 162 19 33 45 61 78 82 27 18 56 38 65 46 15 13 21 11 53
-22 l36 -37 -31 -57 c-51 -94 -23 -116 55 -43 l47 44 52 -29 c64 -35 110 -38
131 -7 20 28 75 52 81 35 15 -43 25 -114 25 -188 0 -89 8 -107 43 -93 17 6
119 121 178 198 l44 60 0 154 0 154 65 75 c159 185 255 344 297 490 16 57 21
63 44 63 88 0 241 82 302 163 169 222 98 537 -150 658 -57 29 -78 34 -157 36
-68 2 -105 -2 -148 -16z m246 -12 c25 -7 35 -14 27 -19 -9 -5 -7 -9 8 -13 12
-3 19 -1 15 4 -3 5 2 6 10 3 9 -3 13 -10 10 -15 -3 -5 0 -9 5 -9 6 0 13 0 16
-1 11 -1 95 -89 118 -124 69 -105 78 -286 20 -399 -20 -39 -70 -104 -103 -133
-29 -26 -129 -76 -182 -92 -21 -6 -53 -15 -71 -21 -43 -13 -70 -13 -62 0 4 7
-2 9 -19 4 -16 -4 -26 -2 -26 5 0 6 -7 8 -15 5 -8 -4 -15 -1 -15 5 0 6 -7 8
-17 4 -11 -4 -14 -3 -9 5 5 8 1 10 -11 5 -10 -3 -15 -3 -11 2 4 4 -12 20 -35
35 -131 83 -210 269 -178 422 25 122 117 245 222 299 91 46 203 56 303 28z
m-511 -596 c-5 -12 -3 -14 7 -8 9 5 11 4 6 -4 -11 -18 29 -75 94 -134 56 -50
122 -82 213 -101 27 -6 38 -38 18 -51 -5 -3 -13 -20 -17 -38 -6 -31 -60 -146
-100 -214 -11 -18 -27 -33 -37 -33 -10 0 -16 -4 -13 -8 10 -16 -33 -71 -61
-78 -45 -10 -50 -12 -20 -13 28 -1 37 -18 13 -27 -23 -9 -116 -130 -116 -151
0 -25 -47 -77 -164 -183 -77 -69 -94 -80 -117 -75 -17 4 -32 1 -42 -9 -18 -19
-42 -12 -108 30 l-42 26 -20 -27 c-19 -25 -57 -48 -84 -50 -6 0 -21 -9 -32
-19 -12 -11 -21 -17 -21 -14 0 23 68 147 102 187 24 27 78 93 120 148 87 110
125 153 137 153 5 0 11 -12 14 -26 7 -36 -88 -200 -153 -264 -14 -14 -60 -80
-56 -80 9 0 152 183 195 249 45 71 52 114 21 131 -16 8 -26 4 -56 -22 -39 -35
-157 -179 -213 -261 l-33 -49 -40 39 c-51 49 -69 83 -57 106 7 11 6 17 -1 17
-20 0 -9 35 46 144 71 140 104 194 124 199 20 5 107 128 116 163 6 24 8 23 36
-28 62 -113 245 -259 368 -292 14 -4 -6 9 -44 28 -120 62 -273 194 -311 270
-14 27 -13 33 3 65 10 19 23 36 28 38 6 2 20 -14 32 -34 24 -43 83 -106 145
-157 49 -40 190 -116 215 -116 9 0 -20 18 -64 41 -104 52 -216 146 -271 227
-24 35 -43 66 -43 70 0 14 127 141 190 189 55 42 71 53 97 62 1 1 -1 -6 -4
-16z m-624 -685 l-60 -123 -62 -11 c-34 -6 -74 -10 -89 -9 -16 1 -28 -2 -28
-6 0 -3 -19 -10 -42 -14 -24 -4 -49 -9 -56 -11 -16 -3 27 74 76 136 70 88 109
114 201 135 9 2 30 8 46 14 17 5 40 10 52 10 21 1 19 -7 -38 -121z m606 -359
c3 -84 1 -96 -23 -133 -36 -59 -151 -191 -165 -191 -8 0 -13 24 -14 70 -1 39
-7 92 -14 118 l-11 48 103 98 c59 56 108 95 113 91 5 -5 10 -50 11 -101z
m-603 47 c38 -48 23 -90 -16 -47 -17 19 -31 81 -18 81 4 0 19 -15 34 -34z
m180 -122 c40 -28 48 -48 22 -58 -16 -6 -80 19 -90 35 -6 10 13 49 23 49 4 0
24 -12 45 -26z"/>
<path d="M1945 2756 c-107 -34 -186 -102 -232 -201 -36 -77 -38 -190 -5 -275
39 -100 165 -212 236 -209 12 0 4 6 -19 13 -93 29 -167 99 -203 192 -71 179
-2 358 172 444 52 26 70 30 146 30 77 0 94 -4 147 -30 70 -35 135 -101 166
-168 17 -37 22 -66 22 -137 0 -79 -4 -97 -28 -142 -15 -29 -25 -53 -22 -53 2
0 17 24 32 53 25 46 28 63 28 147 0 89 -2 99 -34 158 -19 35 -57 83 -84 108
-81 73 -219 103 -322 70z"/>
<path d="M2119 2651 c-10 -14 -21 -17 -54 -13 -52 5 -99 -17 -125 -61 -33 -53
-21 -104 33 -155 l25 -24 -26 -43 c-22 -37 -29 -42 -42 -32 -13 11 -13 10 -1
-6 16 -21 24 -15 60 44 l21 37 -35 42 c-42 50 -47 102 -15 143 24 31 81 51
117 42 17 -4 31 0 44 11 24 22 53 11 46 -17 -4 -13 5 -38 24 -67 16 -25 29
-59 29 -74 0 -41 -43 -40 -65 2 -20 39 -29 38 -55 -6 l-22 -35 25 -27 c55 -59
63 -122 22 -166 -33 -35 -72 -49 -121 -41 -30 4 -44 2 -54 -10 -22 -26 -43
-19 -37 14 5 22 0 34 -23 56 -38 36 -55 86 -40 115 16 30 39 25 55 -12 l14
-33 1 27 c0 19 -8 33 -25 44 -24 16 -27 16 -45 -1 -37 -34 -19 -111 37 -154
20 -17 24 -24 15 -33 -18 -18 -14 -36 10 -49 18 -10 24 -8 38 9 14 16 25 19
62 15 80 -9 148 45 148 119 0 47 -13 75 -47 104 -25 22 -25 22 -7 53 22 37 30
39 38 6 12 -48 80 -55 92 -10 6 25 -16 77 -49 112 -17 19 -18 25 -7 38 11 13
10 19 -5 35 -23 25 -41 25 -56 1z"/>
<path d="M2022 2548 c-17 -17 -15 -43 4 -59 13 -10 17 -10 25 2 23 34 30 50
24 59 -8 14 -39 12 -53 -2z m48 -7 c0 -5 -9 -19 -19 -32 -18 -22 -20 -22 -26
-6 -10 25 1 47 25 47 11 0 20 -4 20 -9z"/>
<path d="M2014 2329 c-29 -46 -26 -69 10 -69 47 0 70 46 46 91 -16 28 -27 24
-56 -22z m56 -13 c0 -28 -18 -46 -47 -46 -28 0 -28 1 -2 51 17 33 23 38 35 29
8 -7 14 -22 14 -34z"/>
<path d="M2276 2171 c-20 -21 -57 -48 -82 -60 -44 -22 -60 -36 -26 -24 33 12
87 51 121 87 19 20 33 36 30 36 -3 0 -22 -17 -43 -39z"/>
<path d="M1997 2063 c18 -2 50 -2 70 0 21 2 7 4 -32 4 -38 0 -55 -2 -38 -4z"/>
<path d="M1195 1268 c-26 -35 -32 -47 -15 -28 38 43 73 90 66 90 -3 0 -26 -28
-51 -62z"/>
<path d="M2640 2090 l0 -72 -30 4 -30 5 0 -229 0 -228 30 0 c30 0 30 0 30 -60
0 -50 3 -60 18 -60 15 0 17 8 14 60 l-4 60 36 0 36 0 -2 228 -3 227 -33 -3
-34 -4 4 69 c3 58 1 68 -14 71 -16 3 -18 -5 -18 -68z m41 -100 c18 -10 19 -23
19 -195 0 -176 -1 -185 -21 -195 -16 -9 -26 -8 -44 4 -23 15 -24 18 -24 188 0
95 3 178 7 184 6 9 23 19 40 23 2 1 12 -4 23 -9z"/>
<path d="M2420 1735 l0 -55 -35 0 -35 0 0 -221 0 -221 35 6 35 7 0 -61 c0 -47
3 -60 15 -60 12 0 15 13 15 61 l0 61 30 -7 30 -7 0 221 0 221 -30 0 c-30 0
-30 1 -30 55 0 42 -3 55 -15 55 -12 0 -15 -13 -15 -55z m50 -92 c3 -3 6 -83 7
-179 1 -162 0 -175 -18 -184 -10 -6 -30 -8 -44 -4 l-25 6 0 183 c0 166 2 184
18 188 17 4 52 -1 62 -10z"/>
<path d="M2200 1375 l0 -55 -35 0 -35 0 0 -200 0 -200 36 0 36 0 -4 -55 c-3
-47 0 -55 15 -55 14 0 17 9 17 56 l0 56 30 -4 30 -5 0 205 0 204 -30 -4 -30
-5 0 59 c0 45 -3 58 -15 58 -12 0 -15 -13 -15 -55z m38 -94 c10 -6 14 -45 14
-160 0 -127 -2 -155 -15 -169 -13 -13 -21 -13 -42 -4 l-25 12 0 159 c0 118 3
161 13 164 19 8 41 7 55 -2z"/>
<path d="M1980 1101 l0 -50 -32 6 -33 5 0 -161 0 -161 33 0 32 0 0 -60 c0 -47
3 -60 15 -60 12 0 15 13 15 60 0 60 0 60 30 60 l30 0 0 161 0 160 -27 -3 c-27
-3 -28 -1 -29 42 0 34 -5 46 -17 48 -14 3 -17 -5 -17 -47z m50 -131 c3 -30 4
-87 2 -127 -3 -63 -6 -72 -25 -77 -12 -3 -29 1 -39 11 -15 14 -18 33 -18 124
0 92 3 110 18 118 9 6 26 10 37 8 17 -2 21 -11 25 -57z"/>
<path d="M1190 981 c-5 -11 -10 -28 -10 -38 0 -34 -58 -119 -120 -177 -34 -31
-67 -55 -73 -53 -11 3 -41 -63 -33 -71 2 -1 42 29 89 67 109 91 177 193 177
267 0 29 -15 31 -30 5z"/>
<path d="M1760 884 c0 -46 0 -46 -30 -42 l-30 5 0 -125 0 -124 30 4 30 5 0
-54 c0 -47 2 -53 21 -53 19 0 21 5 17 53 -3 52 -3 52 25 49 l27 -3 0 120 0
121 -25 0 c-23 0 -25 4 -25 45 0 38 -3 45 -20 45 -17 0 -20 -7 -20 -46z m40
-74 c10 -6 16 -32 18 -82 5 -86 -9 -109 -56 -92 -26 9 -27 12 -27 88 0 59 3
80 15 86 19 12 31 12 50 0z"/>
<path d="M727 833 c-15 -29 -77 -224 -97 -303 -6 -25 -14 -53 -16 -63 -10 -31
273 154 323 212 53 61 13 46 -65 -24 -63 -57 -175 -133 -207 -141 -23 -6 -24
-5 -14 33 6 21 15 42 20 48 5 5 9 16 9 25 0 9 15 55 34 102 41 105 50 138 36
138 -5 0 -16 -12 -23 -27z"/>
<path d="M555 810 c-44 -10 -72 -30 -92 -67 -20 -37 -8 -59 14 -26 40 60 52
67 109 67 38 1 57 -4 64 -14 7 -11 12 -12 21 -3 21 21 -66 54 -116 43z"/>
<path d="M350 682 c-49 -24 -82 -85 -77 -140 3 -24 12 -51 22 -62 16 -17 16
-21 1 -42 -29 -41 -21 -86 24 -130 38 -38 42 -40 97 -37 41 2 68 -2 92 -15 41
-22 112 -17 140 9 18 15 21 15 52 0 40 -21 102 -15 133 14 20 19 24 19 37 6
24 -24 83 -30 120 -11 24 12 61 16 145 16 105 0 113 1 119 20 9 29 -12 50 -50
50 -24 0 -34 6 -43 25 -13 29 -55 49 -83 40 -13 -5 -19 -1 -19 10 0 22 -63 85
-84 85 -25 0 -19 -14 14 -33 16 -10 35 -28 42 -40 17 -33 34 -47 58 -47 11 0
31 -10 44 -22 12 -13 38 -31 57 -40 l34 -17 -30 -1 c-16 -1 -60 -2 -97 -1 -37
0 -86 -6 -109 -14 -41 -15 -75 -13 -115 7 -16 8 -28 6 -48 -7 -29 -19 -94 -22
-124 -6 -20 11 -92 -5 -92 -21 0 -21 -74 -7 -117 23 -29 19 -43 24 -40 15 9
-24 -60 -21 -100 4 -40 24 -54 77 -29 115 14 22 15 28 2 48 -41 64 -23 138 42
175 36 20 42 22 62 22 6 0 10 5 10 10 0 16 -52 12 -90 -8z"/>
<path d="M1490 594 l0 -106 30 5 c30 6 30 6 30 -38 0 -33 4 -45 15 -45 11 0
15 12 15 46 0 45 0 46 30 39 l30 -7 0 106 0 106 -75 0 -75 0 0 -106z m118 4
c2 -47 0 -58 -16 -67 -49 -26 -81 21 -67 95 6 33 8 35 43 32 l37 -3 3 -57z"/>
<path d="M910 607 c5 -16 10 -42 10 -58 0 -19 5 -29 15 -29 25 0 18 55 -10 87
l-25 28 10 -28z"/>
<path d="M1280 481 l0 -119 75 -4 75 -3 0 123 0 122 -75 0 -75 0 0 -119z m111
72 c6 -39 5 -121 -1 -138 -10 -28 -56 -31 -70 -6 -11 22 -14 134 -3 144 9 9
73 9 74 0z"/>
</g>
</svg>
